<svg width="150" height="150" viewBox="0 0 150 150" fill="none" xmlns="http://www.w3.org/2000/svg">
<circle cx="75" cy="75" r="72" stroke="#C87272" stroke-width="6"/>
<circle cx="75" cy="75" r="63" fill="#C87272"/>
<mask id="mask0" mask-type="alpha" maskUnits="userSpaceOnUse" x="12" y="12" width="126" height="126">
<circle cx="75" cy="75" r="63" fill="white"/>
</mask>
<g mask="url(#mask0)">
<path d="M123.165 78.7919C120.609 78.7919 118.537 76.7358 118.537 74.1996C118.537 71.6633 120.609 69.6073 123.165 69.6073H128.743C126.123 44.1185 105.292 23.8984 79.4071 22V26.8188C79.4071 29.355 77.3352 31.4111 74.7794 31.4111C72.2236 31.4111 70.1517 29.355 70.1517 26.8188V22.1097C44.6498 24.5896 24.3362 44.8779 22.0379 70.2418H27.0334C29.5892 70.2418 31.6611 72.2978 31.6611 74.8341C31.6611 77.3704 29.5892 79.4264 27.0334 79.4264H22C24.1278 105.199 44.8486 125.824 70.7914 128.036V122.215C70.7914 119.678 72.8633 117.622 75.4191 117.622C77.9749 117.622 80.0468 119.678 80.0468 122.215V128.036C106.202 125.806 127.049 104.859 128.886 78.7919H123.165ZM94.1524 62.9492L78.6916 78.292C77.8237 79.1533 76.6469 79.6371 75.4194 79.6371C74.1922 79.6371 73.0148 79.1533 72.1472 78.292L45.2348 51.5854C43.4275 49.7922 43.4275 46.8846 45.2348 45.091C47.0418 43.2975 49.9719 43.2975 51.7792 45.091L75.4197 68.5504L87.6085 56.4548C89.4156 54.6613 92.3456 54.6613 94.153 56.4548C95.9597 58.248 95.9597 61.156 94.1524 62.9492Z" fill="white"/>
</g>
</svg>
