<svg width="1949" height="1699" viewBox="0 0 1949 1699" fill="none" xmlns="http://www.w3.org/2000/svg">
<rect width="1948" height="664" fill="white"/>
<rect x="1" y="704" width="1947" height="548" fill="#FCFCFC"/>
<path d="M1904.5 432.5C1933.3 432.5 1945.5 438.5 1948 441.5V755.5H0.5V427C56.3334 467.833 192.8 549.5 292 549.5C545.5 549.5 668 460.5 839 460.5C1010 460.5 1063.5 516 1145.5 516C1227.5 516 1234.5 441.5 1335.5 441.5C1436.5 441.5 1521 525.5 1640 525.5C1759 525.5 1868.5 432.5 1904.5 432.5Z" fill="#FCFCFC"/>
<rect x="1" y="1022" width="1947" height="548" fill="#F8F8F8"/>
<path d="M44.5 867.5C15.7 867.5 3.5 873.5 1 876.5V1190.5H1948.5V862C1892.67 902.833 1756.2 984.5 1657 984.5C1403.5 984.5 1281 895.5 1110 895.5C939 895.5 885.5 951 803.5 951C721.5 951 714.5 876.5 613.5 876.5C512.5 876.5 428 960.5 309 960.5C190 960.5 80.5 867.5 44.5 867.5Z" fill="#F8F8F8"/>
<path d="M44.5 1375.5C15.7 1375.5 3.5 1381.5 1 1384.5V1698.5H1948.5V1370C1892.67 1410.83 1756.2 1492.5 1657 1492.5C1403.5 1492.5 1281 1403.5 1110 1403.5C939 1403.5 885.5 1459 803.5 1459C721.5 1459 714.5 1384.5 613.5 1384.5C512.5 1384.5 428 1468.5 309 1468.5C190 1468.5 80.5 1375.5 44.5 1375.5Z" fill="#F2F2F2"/>
</svg>
