<svg width="150" height="150" viewBox="0 0 150 150" fill="none" xmlns="http://www.w3.org/2000/svg">
<circle cx="75" cy="75" r="72" stroke="#C87272" stroke-width="6"/>
<circle cx="75" cy="75" r="63" fill="#C87272"/>
<mask id="mask0" mask-type="alpha" maskUnits="userSpaceOnUse" x="12" y="12" width="126" height="126">
<circle cx="75" cy="75" r="63" fill="#C87272"/>
</mask>
<g mask="url(#mask0)">
<path d="M42.9295 80.5192C43.0048 79.2803 43.0802 78.0397 43.2411 76.7866C43.5385 73.8155 44.1776 70.8322 44.8306 67.9302C45.228 66.4827 45.6586 65.0528 46.1103 63.6549C46.6879 62.2904 47.2532 60.9333 47.817 59.6078C49.0931 57.0203 50.5199 54.6026 52.223 52.5789C52.6274 52.0574 53.0281 51.5521 53.4205 51.045C53.8685 50.5926 54.3169 50.1542 54.749 49.7158C55.6611 48.8834 56.4521 47.982 57.3627 47.3209C59.1776 45.9637 60.7834 44.6735 62.418 43.8746C63.9937 42.9872 65.3448 42.2169 66.5631 41.7821C68.9508 40.8119 70.3058 40.3243 70.3058 40.3243C70.3058 40.3243 69.1503 41.2503 67.1305 42.7526C66.087 43.4402 64.9808 44.5253 63.6643 45.637C62.2918 46.6972 61.0491 48.2172 59.5717 49.6738C58.8329 50.4179 58.2591 51.3528 57.5604 52.2135C57.2208 52.6519 56.8724 53.0936 56.5133 53.5427C56.2228 54.0376 55.9218 54.5341 55.6171 55.0413C54.313 56.9926 53.3382 59.2831 52.3224 61.6071C51.9057 62.8231 51.4841 64.0568 51.0532 65.3026C50.7592 66.598 50.4337 67.9074 50.0785 69.2119C49.5445 71.8928 49.0211 74.6272 48.7951 77.4389C48.6378 78.4586 48.5625 79.4872 48.4679 80.5228C70.596 80.5265 87.7228 80.5405 111.688 80.5405C111.768 79.4799 111.813 78.4054 111.813 77.3257C111.813 56.9482 97.1054 40.1652 78.1792 37.9419C79.4011 36.7879 80.1749 35.1512 80.1749 33.3307C80.1818 29.8314 77.374 27 73.9151 27C70.4526 27 67.6415 29.8314 67.6415 33.3307C67.6415 35.1548 68.4117 36.7876 69.6369 37.9419C50.7121 40.1652 36.0081 56.9482 36.0081 77.3257C36.0081 78.402 36.0463 79.4623 36.1253 80.5195C38.4624 80.5192 40.7187 80.5192 42.9295 80.5192Z" fill="white"/>
<path d="M118.721 82.8765H29.1091V90.8582H118.721V82.8765Z" fill="white"/>
<path d="M91.9321 95.8168C87.3776 98.0508 71.4968 103.834 71.4968 103.834L52.7245 102.646C52.7245 102.646 63.4623 99.631 67.6248 98.6872C71.7945 97.7469 69.9808 93 67.6754 93C65.3703 93 45.2797 93.8375 45.2797 93.8375L31.9391 98.6872L35.4697 121.249C35.4697 121.249 38.2163 116.502 40.956 116.502C43.7059 116.502 67.525 117.142 70.7583 116.502C73.9933 115.855 93.697 102.246 96.0567 100.659C98.4058 99.0794 96.5044 93.5796 91.9321 95.8168Z" fill="white"/>
<path d="M14 101.112V130.358L34.4389 126.495L29.3257 98.3899L14 101.112Z" fill="white"/>
</g>
</svg>
