<svg width="150" height="150" viewBox="0 0 150 150" fill="none" xmlns="http://www.w3.org/2000/svg">
<path d="M75.0043 11.7461C40.0682 11.7461 11.751 40.0632 11.751 74.9997C11.751 100.96 27.4042 123.239 49.7725 132.984L50.5967 117.018C50.5967 104.315 41.208 108.385 41.208 99.4991C41.208 94.5187 41.3636 84.1414 41.3636 76.3503C41.3636 55.5883 50.1799 35.5044 52.3456 31.0228C54.5244 26.5459 59.649 21.6616 59.7041 26.3627C59.7041 33.1834 59.9949 112.496 59.9949 112.496H59.9811L60.9515 136.624C65.4812 137.658 70.1689 138.249 75.0047 138.249C77.6554 138.249 80.2463 138.034 82.8143 137.718L84.9064 97.1738C79.7428 96.0434 75.3392 92.7564 72.5765 88.6321C69.1547 83.5048 75.2064 38.1752 75.2064 38.1752H79.1479V80.7173H83.057V38.1752H87.3278V80.7173H91.224V38.1752H95.6595V80.7173H99.5643V38.1752H102.585C102.585 38.1752 108.633 83.5051 105.213 88.6321C102.476 92.715 98.1176 95.9926 93.0182 97.1553C92.9268 97.1828 92.8445 97.2195 92.8445 97.2195L94.8223 135.04C120.036 126.723 138.259 103.006 138.259 74.9997C138.253 40.0636 109.936 11.7461 75.0043 11.7461Z" fill="#C87272"/>
<path d="M75.0043 0C33.6525 0 0 33.6454 0 74.9996C0 116.345 33.6525 150 75.0043 150C116.354 150 150 116.345 150 74.9996C150 33.6454 116.354 0 75.0043 0ZM75.0043 144.406C36.7307 144.406 5.59148 113.269 5.59148 74.9996C5.59148 36.726 36.7307 5.58675 75.0043 5.58675C113.274 5.58675 144.415 36.726 144.415 74.9996C144.415 113.269 113.273 144.406 75.0043 144.406Z" fill="#C87272"/>
</svg>
