<svg width="32" height="32" viewBox="0 0 32 32" fill="none" xmlns="http://www.w3.org/2000/svg">
<path d="M11.1002 0H20.917C29.8838 0 32.0005 2.13337 32.0005 11.1002V20.917C32.0005 29.8838 29.8671 32.0005 20.9003 32.0005H11.0835C2.1167 32.0005 0 29.8671 0 20.9003V11.0835C0 2.13337 2.13337 0 11.1002 0Z" fill="white"/>
<path fill-rule="evenodd" clip-rule="evenodd" d="M26.2003 11.0168C26.3504 10.5168 26.2003 10.1667 25.5003 10.1667H23.167C22.567 10.1667 22.3003 10.4834 22.1503 10.8334C22.1503 10.8334 20.9669 13.7335 19.2836 15.6002C18.7336 16.1502 18.5002 16.3168 18.2002 16.3168C18.0502 16.3168 17.8336 16.1502 17.8336 15.6502V11.0168C17.8336 10.4168 17.6669 10.1667 17.1669 10.1667H13.5002C13.1335 10.1667 12.9001 10.4501 12.9001 10.7001C12.9001 11.2668 13.7335 11.4001 13.8335 12.9668V16.4002C13.8335 17.1502 13.7002 17.2835 13.4002 17.2835C12.6168 17.2835 10.6834 14.3835 9.5501 11.0501C9.31676 10.4334 9.10009 10.1667 8.50008 10.1667H6.16671C5.50003 10.1667 5.3667 10.4834 5.3667 10.8334C5.3667 11.4501 6.15004 14.5168 9.05009 18.5669C10.9835 21.3336 13.7002 22.8336 16.1669 22.8336C17.6502 22.8336 17.8336 22.5003 17.8336 21.9336V19.8336C17.8336 19.1669 17.9669 19.0335 18.4502 19.0335C18.8002 19.0335 19.3836 19.2002 20.7669 20.5336C22.3503 22.1169 22.617 22.8336 23.5003 22.8336H25.8337C26.5004 22.8336 26.8337 22.5003 26.6337 21.8503C26.417 21.2002 25.667 20.2502 24.667 19.1169C24.117 18.4669 23.3003 17.7835 23.067 17.4335C22.717 16.9835 22.817 16.7835 23.067 16.4002C23.067 16.3835 25.917 12.3834 26.2003 11.0168Z" fill="#0E1A25"/>
</svg>
